<?xml version="1.0" encoding="UTF-8"?>
<svg width="19px" height="19px" viewBox="0 0 19 19" version="1.1" xmlns="http://www.w3.org/2000/svg" xmlns:xlink="http://www.w3.org/1999/xlink">
    <title>苹果电脑iMac_i-mac-4</title>
    <defs>
        <rect id="path-1" x="0" y="0" width="18" height="18"></rect>
    </defs>
    <g id="3" stroke="none" stroke-width="1" fill="none" fill-rule="evenodd">
        <g id="9.智慧水务-报警记录" transform="translate(-1693.000000, -310.000000)">
            <g id="苹果电脑iMac_i-mac-4-2" transform="translate(1693.000000, 310.000000)">
                <g id="苹果电脑iMac_i-mac-4" transform="translate(0.370426, 0.944188)">
                    <mask id="mask-2" fill="white">
                        <use xlink:href="#path-1"></use>
                    </mask>
                    <use id="蒙版" fill="#D8D8D8" opacity="0" xlink:href="#path-1"></use>
                    <g mask="url(#mask-2)" id="路径">
                        <g transform="translate(2.629574, 3.055812)">
                            <polygon stroke="#F7B500" stroke-width="1.125" fill="none" stroke-linejoin="round" points="0 0 13 0 13 7 0 7"></polygon>
                            <polyline stroke="#F7B500" stroke-width="1.125" fill="none" stroke-linecap="round" stroke-linejoin="round" points="13 7 13 10 0 10 0 7"></polyline>
                            <path d="M2.772725,4 L2.227275,4 C2.10175,4 2,4.10175 2,4.227275 L2,4.772725 C2,4.89825 2.10175,5 2.227275,5 L2.772725,5 C2.89825,5 3,4.89825 3,4.772725 L3,4.227275 C3,4.10175 2.89825,4 2.772725,4 Z" stroke="none" fill="#F7B500" fill-rule="nonzero"></path>
                            <path d="M2.772725,2 L2.227275,2 C2.10175,2 2,2.10175 2,2.227275 L2,2.772725 C2,2.89825 2.10175,3 2.227275,3 L2.772725,3 C2.89825,3 3,2.89825 3,2.772725 L3,2.227275 C3,2.10175 2.89825,2 2.772725,2 Z" stroke="none" fill="#F7B500" fill-rule="nonzero"></path>
                            <path d="M5.772725,4 L5.227275,4 C5.10175,4 5,4.10175 5,4.227275 L5,4.772725 C5,4.89825 5.10175,5 5.227275,5 L5.772725,5 C5.89825,5 6,4.89825 6,4.772725 L6,4.227275 C6,4.10175 5.89825,4 5.772725,4 Z" stroke="none" fill="#F7B500" fill-rule="nonzero"></path>
                            <path d="M5.772725,2 L5.227275,2 C5.10175,2 5,2.10175 5,2.227275 L5,2.772725 C5,2.89825 5.10175,3 5.227275,3 L5.772725,3 C5.89825,3 6,2.89825 6,2.772725 L6,2.227275 C6,2.10175 5.89825,2 5.772725,2 Z" stroke="none" fill="#F7B500" fill-rule="nonzero"></path>
                            <path d="M8.772725,4 L8.227275,4 C8.10175,4 8,4.10175 8,4.227275 L8,4.772725 C8,4.89825 8.10175,5 8.227275,5 L8.772725,5 C8.89825,5 9,4.89825 9,4.772725 L9,4.227275 C9,4.10175 8.89825,4 8.772725,4 Z" stroke="none" fill="#F7B500" fill-rule="nonzero"></path>
                            <path d="M8.772725,2 L8.227275,2 C8.10175,2 8,2.10175 8,2.227275 L8,2.772725 C8,2.89825 8.10175,3 8.227275,3 L8.772725,3 C8.89825,3 9,2.89825 9,2.772725 L9,2.227275 C9,2.10175 8.89825,2 8.772725,2 Z" stroke="none" fill="#F7B500" fill-rule="nonzero"></path>
                            <path d="M10.772725,2 L10.227275,2 C10.10175,2 10,2.10175 10,2.227275 L10,2.772725 C10,2.89825 10.10175,3 10.227275,3 L10.772725,3 C10.89825,3 11,2.89825 11,2.772725 L11,2.227275 C11,2.10175 10.89825,2 10.772725,2 Z" stroke="none" fill="#F7B500" fill-rule="nonzero"></path>
                            <polyline stroke="#F7B500" stroke-width="1.125" fill="none" stroke-linecap="round" stroke-linejoin="round" points="5.5144375 10 4 12 9 12 7.4855625 10"></polyline>
                        </g>
                    </g>
                </g>
            </g>
        </g>
    </g>
</svg>