<?xml version="1.0" encoding="UTF-8"?>
<svg width="19px" height="19px" viewBox="0 0 19 19" version="1.1" xmlns="http://www.w3.org/2000/svg" xmlns:xlink="http://www.w3.org/1999/xlink">
    <title>水位线_water-level-2</title>
    <defs>
        <rect id="path-1" x="0" y="0" width="18" height="18"></rect>
    </defs>
    <g id="3" stroke="none" stroke-width="1" fill="none" fill-rule="evenodd">
        <g id="9.智慧水务-报警记录" transform="translate(-1693.000000, -354.000000)">
            <g id="水位线_water-level-2" transform="translate(1693.370426, 354.944188)">
                <mask id="mask-2" fill="white">
                    <use xlink:href="#path-1"></use>
                </mask>
                <use id="蒙版" fill="#D8D8D8" opacity="0" xlink:href="#path-1"></use>
                <g mask="url(#mask-2)" id="路径" stroke="#32C5FF" stroke-linejoin="round" stroke-width="1.125">
                    <g transform="translate(3.629574, 1.055812)">
                        <path d="M5.625,15 C8.7316125,15 11.25,12.4816125 11.25,9.375 C11.25,4.125 5.625,0 5.625,0 C5.625,0 0,4.125 0,9.375 C0,12.4816125 2.5183875,15 5.625,15 Z" stroke-linecap="round"></path>
                        <path d="M0,9.3750375 C0,12.48165 2.5183875,15.0000375 5.625,15.0000375 C8.7316125,15.0000375 11.25,12.48165 11.25,9.3750375 C11.25,9.3750375 7.875,10.5000375 5.625,9.3750375 C3.375,8.2500375 0,9.3750375 0,9.3750375 Z"></path>
                    </g>
                </g>
            </g>
        </g>
    </g>
</svg>