<?xml version="1.0" encoding="UTF-8"?>
<svg width="50px" height="65px" viewBox="0 0 50 65" version="1.1" xmlns="http://www.w3.org/2000/svg" xmlns:xlink="http://www.w3.org/1999/xlink">
    <title>铭</title>
    <defs>
        <polygon id="path-1" points="18 32.7348485 39.7142857 19 39.7142857 44.1805556 18 57.915404"></polygon>
        <filter x="-39.1%" y="-16.7%" width="178.3%" height="143.7%" filterUnits="objectBoundingBox" id="filter-2">
            <feOffset dx="0" dy="2" in="SourceAlpha" result="shadowOffsetOuter1"></feOffset>
            <feGaussianBlur stdDeviation="2.5" in="shadowOffsetOuter1" result="shadowBlurOuter1"></feGaussianBlur>
            <feColorMatrix values="0 0 0 0 0.38714392   0 0 0 0 0.249741557   0 0 0 0 0.0480722031  0 0 0 0.5 0" type="matrix" in="shadowBlurOuter1"></feColorMatrix>
        </filter>
        <filter x="-43.7%" y="-19.3%" width="187.5%" height="148.8%" filterUnits="objectBoundingBox" id="filter-3">
            <feGaussianBlur stdDeviation="3.5" in="SourceAlpha" result="shadowBlurInner1"></feGaussianBlur>
            <feOffset dx="0" dy="-2" in="shadowBlurInner1" result="shadowOffsetInner1"></feOffset>
            <feComposite in="shadowOffsetInner1" in2="SourceAlpha" operator="arithmetic" k2="-1" k3="1" result="shadowInnerInner1"></feComposite>
            <feColorMatrix values="0 0 0 0 0.985677083   0 0 0 0 0.917097178   0 0 0 0 0.812744115  0 0 0 0.574530118 0" type="matrix" in="shadowInnerInner1"></feColorMatrix>
        </filter>
        <polygon id="path-4" points="18.2857143 32.4457071 0 21 0 46.1805556 18.2857143 57.6262626"></polygon>
        <filter x="-46.5%" y="-17.7%" width="193.0%" height="146.4%" filterUnits="objectBoundingBox" id="filter-5">
            <feOffset dx="0" dy="2" in="SourceAlpha" result="shadowOffsetOuter1"></feOffset>
            <feGaussianBlur stdDeviation="2.5" in="shadowOffsetOuter1" result="shadowBlurOuter1"></feGaussianBlur>
            <feColorMatrix values="0 0 0 0 0.354485544   0 0 0 0 0.237405797   0 0 0 0 0.0827608493  0 0 0 0.554177989 0" type="matrix" in="shadowBlurOuter1"></feColorMatrix>
        </filter>
        <filter x="-62.9%" y="-25.9%" width="225.8%" height="162.8%" filterUnits="objectBoundingBox" id="filter-6">
            <feGaussianBlur stdDeviation="5.5" in="SourceAlpha" result="shadowBlurInner1"></feGaussianBlur>
            <feOffset dx="0" dy="-2" in="shadowBlurInner1" result="shadowOffsetInner1"></feOffset>
            <feComposite in="shadowOffsetInner1" in2="SourceAlpha" operator="arithmetic" k2="-1" k3="1" result="shadowInnerInner1"></feComposite>
            <feColorMatrix values="0 0 0 0 0.985677083   0 0 0 0 0.892220442   0 0 0 0 0.812744115  0 0 0 0.598562047 0" type="matrix" in="shadowInnerInner1"></feColorMatrix>
        </filter>
        <polygon id="path-7" points="20.5714286 9 40 19.084596 18.2857143 32.8194444 0 21.3737374"></polygon>
        <filter x="-13.8%" y="-23.1%" width="127.5%" height="146.2%" filterUnits="objectBoundingBox" id="filter-8">
            <feGaussianBlur stdDeviation="4.5" in="SourceAlpha" result="shadowBlurInner1"></feGaussianBlur>
            <feOffset dx="0" dy="2" in="shadowBlurInner1" result="shadowOffsetInner1"></feOffset>
            <feComposite in="shadowOffsetInner1" in2="SourceAlpha" operator="arithmetic" k2="-1" k3="1" result="shadowInnerInner1"></feComposite>
            <feColorMatrix values="0 0 0 0 0.794217687   0 0 0 0 0.578396897   0 0 0 0 0.340701337  0 0 0 0.45739923 0" type="matrix" in="shadowInnerInner1"></feColorMatrix>
        </filter>
        <filter x="-25.0%" y="-300.0%" width="150.0%" height="700.0%" filterUnits="objectBoundingBox" id="filter-9">
            <feGaussianBlur stdDeviation="1" in="SourceGraphic"></feGaussianBlur>
        </filter>
        <filter x="-50.0%" y="-900.0%" width="200.0%" height="1900.0%" filterUnits="objectBoundingBox" id="filter-10">
            <feGaussianBlur stdDeviation="3" in="SourceGraphic"></feGaussianBlur>
        </filter>
        <linearGradient x1="50%" y1="0%" x2="50%" y2="100%" id="linearGradient-11">
            <stop stop-color="#F4AA71" offset="0%"></stop>
            <stop stop-color="#CC714A" offset="100%"></stop>
        </linearGradient>
        <path d="M22.1144409,19.4979404 C20.8038724,19.9249796 19.4896225,20.0795972 18.1716912,19.9617933 C16.85376,19.8439894 15.6241816,19.4979404 14.4829562,18.9236463 C13.3417308,18.3493523 12.3330348,17.5689014 11.4568682,16.5822936 C10.5807016,15.5956858 9.92909876,14.4470977 9.50205957,13.1365291 C9.07502039,11.8259606 8.92040276,10.5117107 9.03820668,9.19377946 C9.1560106,7.87584817 9.50205959,6.64258847 10.0763536,5.49400034 C10.6506477,4.34541222 11.43478,3.33303485 12.4287505,2.45686822 C13.4227211,1.5807016 14.5749906,0.929098711 15.8855591,0.502059558 C17.1961276,0.0750204055 18.5103775,-0.0795972263 19.8283088,0.038206663 C21.1462401,0.156010552 22.3758184,0.505740917 23.5170438,1.08739776 C24.6582692,1.66905459 25.6669652,2.45318689 26.5431318,3.43979464 C27.4192984,4.42640239 28.0709013,5.57499054 28.4979404,6.88555908 C28.9249796,8.19612762 29.0795972,9.51037751 28.9617933,10.8283088 C28.8439894,12.14624 28.4979404,13.3758184 27.9236464,14.5170438 C27.3493523,15.6582692 26.56522,16.6669652 25.5712495,17.5431318 C24.577279,18.4192984 23.4250094,19.0709012 22.1144409,19.4979404 L22.1144409,19.4979404 Z M26.6867053,7.43776491 C26.3332935,6.37752971 25.8031759,5.44614253 25.0963525,4.64360337 C24.389529,3.84106422 23.5759457,3.20786819 22.6556027,2.74401529 C21.7352596,2.28016238 20.7412891,2.00037809 19.6736911,1.90466241 C18.6060932,1.80894673 17.5421766,1.93779477 16.4819414,2.29120651 C15.4217062,2.64461826 14.490319,3.17473586 13.6877798,3.88155932 C12.8852407,4.58838278 12.2520447,5.40196605 11.7881918,6.32230912 C11.3243389,7.2426522 11.0408732,8.23662271 10.9377948,9.30422066 C10.8347163,10.3718186 10.959883,11.4357352 11.3132947,12.4959704 C11.6667065,13.5562056 12.1968241,14.4875928 12.9036475,15.290132 C13.610471,16.0926711 14.4277356,16.7258671 15.3554415,17.18972 C16.2831473,17.653573 17.2807992,17.9333573 18.3483971,18.0290729 C19.415995,18.1247886 20.4799116,17.9959406 21.5401469,17.6425288 C22.6003821,17.2891171 23.5317693,16.7589995 24.3343084,16.052176 C25.1368475,15.3453525 25.7700435,14.5317693 26.2338965,13.6114262 C26.6977494,12.6910832 26.9775337,11.6971126 27.0732493,10.6295147 C27.168965,9.5619167 27.040117,8.49800012 26.6867052,7.43776491 L26.6867053,7.43776491 Z M21.2750881,16.9357053 C20.3179313,17.2449406 19.3607745,17.3590631 18.4036177,17.278073 C17.4464609,17.1970828 16.5482061,16.9467495 15.7088532,16.527073 C14.8695003,16.1073966 14.1295445,15.5367839 13.4889857,14.8152349 C12.848427,14.093686 12.37353,13.2543331 12.0642947,12.2971763 C11.7550594,11.3400195 11.6409368,10.3791814 11.7219271,9.41466182 C11.8029173,8.45014228 12.0532506,7.54820607 12.472927,6.7088532 C12.8926034,5.86950032 13.4668975,5.1295445 14.1958092,4.48898573 C14.924721,3.84842696 15.7677552,3.37352994 16.724912,3.06429466 C17.6820687,2.75505938 18.6392255,2.64461822 19.5963823,2.73297117 C20.5535391,2.82132411 21.451794,3.0753388 22.2911468,3.49501522 C23.1304996,3.91469164 23.8704555,4.48530434 24.5110143,5.20685333 C25.1515731,5.92840231 25.6264701,6.76775519 25.9357053,7.72491195 C26.2449406,8.68206871 26.3590631,9.64290687 26.278073,10.6074264 C26.1970828,11.571946 25.9467495,12.4702008 25.527073,13.3021909 C25.1073966,14.134181 24.5331025,14.8704555 23.8041908,15.5110143 C23.0752791,16.1515731 22.2322448,16.6264701 21.2750881,16.9357054 L21.2750881,16.9357053 Z M19,8.65261774 C18.6171373,8.65261774 18.2968579,8.78146577 18.0391619,9.03916184 C17.7814658,9.29685791 17.6526178,9.61713729 17.6526178,9.99999999 C17.6526178,10.3828627 17.7814658,10.7068235 18.0391619,10.9718823 C18.2968579,11.2369411 18.6171373,11.3694705 19,11.3694705 C19.3828627,11.3694705 19.7068235,11.236941 19.9718823,10.9718823 C20.2369411,10.7068235 20.3694705,10.3828627 20.3694705,9.99999999 C20.3694705,9.61713726 20.2369411,9.29685787 19.9718823,9.03916184 C19.7068235,8.7814658 19.3828628,8.65261774 19,8.65261774 Z M13.8755298,6.4437944 L17.012059,8.25502954 C17.0856864,8.21085308 17.1593139,8.15931387 17.2329413,8.10041191 C17.3065687,8.05623544 17.3765148,8.00469623 17.4427795,7.94579427 C17.5090442,7.88689231 17.5789903,7.83535309 17.6526177,7.79117663 C17.8293236,7.6880982 17.9986667,7.61447075 18.1606471,7.57029429 C18.2490001,7.54084332 18.337353,7.51875508 18.4257059,7.50402959 L18.4257059,3.88155927 C18.1753726,3.89628477 17.9176765,3.93309848 17.6526177,3.99200043 C17.4170099,4.05090239 17.1519511,4.12821121 16.8574413,4.22392689 C16.5629315,4.31964257 16.2463335,4.46321609 15.9076473,4.65464745 C15.5247846,4.87552978 15.2045052,5.09273074 14.9468091,5.30625034 C14.6891131,5.51976994 14.4792749,5.70751993 14.3172945,5.8695003 C14.1405886,6.06093166 13.9933337,6.25236302 13.8755298,6.44379438 L13.8755298,6.4437944 Z M13.323324,12.6064116 L16.4819414,10.7951764 C16.4524904,10.7068235 16.4304022,10.6184705 16.4156767,10.5301176 C16.4009512,10.4564902 16.3899071,10.3755 16.3825443,10.287147 C16.3751816,10.1987941 16.3715002,10.1104412 16.3715002,10.0220882 C16.3715002,9.81593138 16.3935884,9.63186277 16.4377649,9.4698824 C16.4524904,9.38152946 16.4745786,9.29317653 16.5040296,9.2048236 L13.3895887,7.39358845 C13.2865102,7.59974531 13.1907946,7.83535313 13.1024416,8.10041193 C13.0288142,8.32129426 12.9588681,8.59003444 12.8926034,8.90663246 C12.8263387,9.22323049 12.7932063,9.57296085 12.7932063,9.95582356 C12.7784808,10.3975882 12.8005691,10.7841323 12.859471,11.1154558 C12.918373,11.4467793 12.9846377,11.7228823 13.0582651,11.9437646 C13.1318926,12.2088234 13.2202455,12.4297057 13.3233239,12.6064116 L13.323324,12.6064116 Z M18.4036177,16.1626172 L18.4257059,12.5180586 C18.337353,12.5033331 18.2490001,12.4738822 18.1606471,12.4297057 C17.9986668,12.3855292 17.8440491,12.3119018 17.6967942,12.2088234 C17.6084413,12.1646469 17.5274511,12.1131077 17.4538237,12.0542057 C17.3801962,11.9953038 17.3139315,11.9364018 17.2550296,11.8774999 C17.1961276,11.8185979 17.1298629,11.759696 17.0562355,11.700794 L13.9417945,13.4899409 C14.0743239,13.6960978 14.2289416,13.9022546 14.4056474,14.1084115 C14.5676278,14.2851173 14.7664219,14.4765487 15.0020298,14.6827055 C15.2376376,14.8888624 15.5247846,15.0950192 15.8634709,15.3011761 C16.2316081,15.5220584 16.5739757,15.6914015 16.8905737,15.8092055 C17.2071717,15.9270094 17.4759119,16.0153623 17.6967942,16.0742643 C17.961853,16.1331662 18.1974609,16.1626172 18.4036177,16.1626172 L18.4036177,16.1626172 Z M24.102382,13.6003821 L20.9658528,11.7891469 C20.8922254,11.8480489 20.8259607,11.9069508 20.7670587,11.9658528 C20.7081567,12.0100292 20.641892,12.0578871 20.5682646,12.1094263 C20.4946372,12.1609655 20.4210097,12.2088234 20.3473823,12.2529998 C20.2590293,12.3119018 20.166995,12.3560782 20.0712793,12.3855292 C19.9755637,12.4149802 19.8908921,12.4444312 19.8172647,12.4738822 C19.7289117,12.5033331 19.6479215,12.5254214 19.5742941,12.5401469 L19.5742941,16.1626172 C19.8099019,16.1478917 20.0602352,16.111078 20.325294,16.052176 C20.5609018,16.0079995 20.829642,15.9343721 21.1315146,15.8312937 C21.4333871,15.7282152 21.7536665,15.5809604 22.0923527,15.389529 C22.4752154,15.1833721 22.7918134,14.9735339 23.0421468,14.7600143 C23.2924801,14.5464948 23.4986369,14.351382 23.6606173,14.1746761 C23.8373232,13.9832448 23.9845781,13.7918134 24.102382,13.6003821 L24.102382,13.6003821 Z M24.6545878,7.39358838 L21.5180586,9.20482358 L21.5622351,9.46988237 C21.5769606,9.54350981 21.5880047,9.62818137 21.5953675,9.72389705 C21.6027302,9.81961273 21.6064116,9.90428429 21.6064116,9.97791173 C21.6064116,10.0809902 21.5990488,10.1840686 21.5843233,10.287147 C21.5695978,10.3902254 21.5548724,10.4785784 21.5401469,10.5522058 C21.5106959,10.6405587 21.4886077,10.7289117 21.4738822,10.8172646 L24.5883231,12.6064115 C24.6914015,12.4002547 24.7871172,12.1646469 24.8754701,11.8995881 C24.9490976,11.6787057 25.0190437,11.4099655 25.0853084,11.0933675 C25.1515731,10.7767695 25.1847054,10.4270391 25.1847054,10.0441764 C25.1847054,9.61713724 25.1589358,9.23427453 25.1073966,8.89558827 C25.0558574,8.55690202 24.9932741,8.27711773 24.9196466,8.0562354 C24.8460192,7.7911766 24.7576663,7.57029426 24.6545878,7.39358838 L24.6545878,7.39358838 Z M19.5963823,3.83738284 L19.5963823,7.48194137 L19.8614411,7.57029431 C19.9350685,7.59974528 20.0123774,7.63287764 20.0933676,7.66969137 C20.1743578,7.70650511 20.2516666,7.7470002 20.325294,7.79117665 C20.3989215,7.85007861 20.4762303,7.9052992 20.5572205,7.95683841 C20.6382107,8.00837762 20.7081568,8.06359821 20.7670587,8.12250017 L20.9658528,8.32129427 L24.0802937,6.51005912 C23.9477643,6.31862776 23.7931467,6.11983366 23.6164408,5.9136768 C23.4544605,5.73697094 23.2556663,5.54185821 23.0200585,5.32833861 C22.7844507,5.11481901 22.4973037,4.90498079 22.1586174,4.69882395 C21.7757547,4.47794162 21.4260243,4.31227987 21.1094263,4.20183869 C20.7928283,4.09139752 20.5240881,4.00672596 20.3032058,3.94782402 C20.038147,3.88892206 19.8025392,3.85210834 19.5963823,3.83738284 L19.5963823,3.83738284 Z" id="path-12"></path>
        <filter x="-5.0%" y="-5.0%" width="110.0%" height="110.0%" filterUnits="objectBoundingBox" id="filter-13">
            <feGaussianBlur stdDeviation="0.5" in="SourceAlpha" result="shadowBlurInner1"></feGaussianBlur>
            <feOffset dx="0" dy="-1" in="shadowBlurInner1" result="shadowOffsetInner1"></feOffset>
            <feComposite in="shadowOffsetInner1" in2="SourceAlpha" operator="arithmetic" k2="-1" k3="1" result="shadowInnerInner1"></feComposite>
            <feColorMatrix values="0 0 0 0 0.286219175   0 0 0 0 0.146705524   0 0 0 0 0.0355458828  0 0 0 0.112884964 0" type="matrix" in="shadowInnerInner1" result="shadowMatrixInner1"></feColorMatrix>
            <feGaussianBlur stdDeviation="0.5" in="SourceAlpha" result="shadowBlurInner2"></feGaussianBlur>
            <feOffset dx="0" dy="1" in="shadowBlurInner2" result="shadowOffsetInner2"></feOffset>
            <feComposite in="shadowOffsetInner2" in2="SourceAlpha" operator="arithmetic" k2="-1" k3="1" result="shadowInnerInner2"></feComposite>
            <feColorMatrix values="0 0 0 0 1   0 0 0 0 0.990126237   0 0 0 0 0.982204861  0 0 0 0.635529891 0" type="matrix" in="shadowInnerInner2" result="shadowMatrixInner2"></feColorMatrix>
            <feMerge>
                <feMergeNode in="shadowMatrixInner1"></feMergeNode>
                <feMergeNode in="shadowMatrixInner2"></feMergeNode>
            </feMerge>
        </filter>
    </defs>
    <g id="页面-1" stroke="none" stroke-width="1" fill="none" fill-rule="evenodd">
        <g id="2.智慧水务-河道水质" transform="translate(-208.000000, -347.000000)" fill-rule="nonzero">
            <g id="铭" transform="translate(213.000000, 347.000000)">
                <g id="Path-18-Copy">
                    <use fill="black" fill-opacity="1" filter="url(#filter-2)" xlink:href="#path-1"></use>
                    <use fill="#D56157" xlink:href="#path-1"></use>
                    <use fill="black" fill-opacity="1" filter="url(#filter-3)" xlink:href="#path-1"></use>
                </g>
                <g id="Path-19-Copy">
                    <use fill="black" fill-opacity="1" filter="url(#filter-5)" xlink:href="#path-4"></use>
                    <use fill="#FD7D7D" xlink:href="#path-4"></use>
                    <use fill="black" fill-opacity="1" filter="url(#filter-6)" xlink:href="#path-4"></use>
                </g>
                <g id="Path-20">
                    <use fill="#FBD2B7" xlink:href="#path-7"></use>
                    <use fill="black" fill-opacity="1" filter="url(#filter-8)" xlink:href="#path-7"></use>
                </g>
                <ellipse id="Oval" fill="#D0774E" filter="url(#filter-9)" cx="19" cy="22.5" rx="6" ry="1"></ellipse>
                <ellipse id="Oval-Copy-18" fill="#D0774E" filter="url(#filter-10)" cx="19" cy="22.5" rx="9" ry="1"></ellipse>
                <g id="Shape">
                    <use fill="url(#linearGradient-11)" xlink:href="#path-12"></use>
                    <use fill="black" fill-opacity="1" filter="url(#filter-13)" xlink:href="#path-12"></use>
                </g>
            </g>
        </g>
    </g>
</svg>